PathFileType	4	(X/Y/Z)	E:\Marcel_BSc\Ayumi_22_01_2025\22-01-2025\conv_dl_0.trc
DataRate	CameraRate	NumFrames	NumMarkers	Units	OrigDataRate	OrigDataStartFrame	OrigNumFrames
200.0	200.0	6	47	mm	200.0	1468	2348	
Frame#	Time	FHD			LBHD			RBHD			RBAR			LBAR			RSACR			LSACR			USACR			C7			CLAV			T10			RSHO			LSHO			LTHI1			LTHI3			LTHI2			LTIB1			LTIB2			LTIB3			LMMAL			LLMAL			LHEE			LMT1			LMT5			LMT3			RTHI1			RTHI2			RTHI3			RTIB1			RTIB3			RTIB2			RLMAL			RMMAL			RHEE			RMT5			RMT1			RMT3			LMUPA			LDUPA			LUUPA			LRAD			RUL			RRAD			RUFIN			RMUPA			RDUPA			RUUPA			
		X1	Y1	Z1	X2	Y2	Z2	X3	Y3	Z3	X4	Y4	Z4	X5	Y5	Z5	X6	Y6	Z6	X7	Y7	Z7	X8	Y8	Z8	X9	Y9	Z9	X10	Y10	Z10	X11	Y11	Z11	X12	Y12	Z12	X13	Y13	Z13	X14	Y14	Z14	X15	Y15	Z15	X16	Y16	Z16	X17	Y17	Z17	X18	Y18	Z18	X19	Y19	Z19	X20	Y20	Z20	X21	Y21	Z21	X22	Y22	Z22	X23	Y23	Z23	X24	Y24	Z24	X25	Y25	Z25	X26	Y26	Z26	X27	Y27	Z27	X28	Y28	Z28	X29	Y29	Z29	X30	Y30	Z30	X31	Y31	Z31	X32	Y32	Z32	X33	Y33	Z33	X34	Y34	Z34	X35	Y35	Z35	X36	Y36	Z36	X37	Y37	Z37	X38	Y38	Z38	X39	Y39	Z39	X40	Y40	Z40	X41	Y41	Z41	X42	Y42	Z42	X43	Y43	Z43	X44	Y44	Z44	X45	Y45	Z45	X46	Y46	Z46	X47	Y47	Z47	
1468	7.33	151.0396	1601.557	-631.12555	164.74345	1588.0352	-569.20123	195.72635	1569.1672	-698.40051	349.12329	690.13599	-1729.0487	144.99294	750.81506	494.51706	446.04471	964.40546	-636.84937	440.05518	965.84399	-563.31134	437.21002	976.98224	-600.57629	345.81094	1398.7687	-604.57007	210.21835	1313.0781	-616.83655	411.58725	1132.4518	-601.6073	235.87093	1321.3459	-779.03754	235.05385	1331.2932	-441.47458	332.79559	614.99158	-415.59344	342.58572	550.16223	-428.05255	294.34644	559.96246	-416.71307	314.58844	240.82088	-411.59415	364.92166	239.07086	-415.63608	336.19678	180.01015	-418.33606	327.66629	73.696136	-501.06992	350.42813	72.75145	-428.61115	387.68079	36.243969	-473.08148	191.4529	44.071743	-449.92944	222.68182	27.334242	-375.19049	194.83469	41.182117	-415.55838	357.3385	614.8299	-791.31238	316.75119	563.15839	-793.11102	365.22845	551.40442	-780.39636	326.39114	282.49258	-800.80103	345.67834	219.96698	-791.62927	376.23541	278.13736	-792.20477	349.5889	73.675301	-775.24213	309.45282	81.38961	-708.58899	384.84521	31.262312	-729.83661	212.25647	30.034271	-817.78546	184.5437	41.186253	-756.50623	191.99971	37.969204	-786.36108	258.44	1124.9799	-380.70654	307.09216	1117.5514	-369.79803	267.38074	1186.2711	-381.33954	248.24332	797.66229	-331.61957	225.47575	794.81641	-892.26208	220.82997	789.61646	-829.06268	210.10066	715.2179	-829.05048	275.33368	1195.2931	-843.2691	270.18817	1134.1935	-854.05463	324.54373	1191.2087	-845.30817
1469	7.335	147.99686	1600.407	-631.06378	161.76138	1586.8938	-569.12054	192.68164	1568.2203	-698.36462	349.5845	689.67737	-1728.9969	145.70822	750.29901	494.56827	447.08405	964.80347	-637.224	441.15704	966.28149	-563.66602	438.14944	977.3988	-600.98981	343.38043	1398.6293	-604.52466	208.44672	1311.8193	-616.91052	411.24924	1132.7465	-601.85876	233.82364	1320.5072	-778.99408	233.11726	1330.3059	-441.63568	333.06165	614.67407	-415.33725	342.43729	549.76196	-427.81891	294.19812	559.90747	-416.45062	314.069	240.80873	-411.53387	364.44827	239.117	-415.46088	335.85324	180.0379	-418.22763	327.63873	73.743927	-501.04993	350.37698	72.799416	-428.52771	387.65375	36.279278	-473.06851	191.46715	44.051067	-449.93454	222.68808	27.323925	-375.19998	194.80481	41.284039	-415.47958	357.39828	614.52893	-791.82593	316.61093	562.95746	-793.52942	364.80685	550.98846	-780.75964	325.56921	282.39606	-801.07343	345.04776	219.9048	-791.90076	375.44376	278.18011	-792.5625	349.46741	73.72451	-775.31732	309.38943	81.387535	-708.62195	384.84332	31.300835	-729.86096	212.2489	30.042938	-817.75116	184.49771	41.297359	-756.11243	191.99321	37.956356	-786.32721	257.19669	1124.3235	-380.85822	305.86334	1117.1189	-369.65671	265.96561	1185.6061	-381.49973	248.55986	797.07245	-331.61139	225.40654	794.20081	-892.31134	220.77266	789.10248	-828.43671	210.33571	714.66803	-828.98383	273.77246	1194.8325	-843.33813	268.94958	1133.6835	-854.23822	323.01306	1190.9905	-845.54944
1470	7.34	144.73517	1599.1368	-630.91125	158.64943	1585.657	-569.03333	189.54091	1567.0544	-698.32422	350.06396	689.13049	-1728.9473	146.44185	749.69482	494.61743	448.04379	965.20917	-637.5943	442.31158	966.59253	-564.00879	439.15134	977.70593	-601.34106	341.04346	1398.4031	-604.57336	206.71512	1310.4862	-616.91241	410.92145	1132.9752	-602.11224	231.78716	1319.6062	-778.94623	231.12292	1329.3621	-441.81003	333.5415	613.82605	-414.87036	342.25723	549.43958	-427.56677	294.20132	559.7785	-416.29578	313.67609	240.7643	-411.37701	364.12851	239.14021	-415.25522	335.56903	180.08461	-418.08862	327.63525	73.766838	-500.98532	350.31436	72.83358	-428.46616	387.65036	36.330425	-473.0484	191.46552	44.053036	-449.91766	222.69095	27.331486	-375.18747	194.79054	41.306465	-415.47925	357.53278	614.03967	-792.37494	316.28387	562.84534	-793.95374	364.56387	550.48029	-781.15826	324.84247	282.36191	-801.33179	344.48846	219.9493	-792.08649	374.7294	278.23828	-792.914	349.3743	73.760239	-775.40698	309.37463	81.376259	-708.6524	384.8522	31.322659	-729.90112	212.23624	30.03867	-817.74188	184.48213	41.297371	-756.07898	192.01985	37.905914	-786.27454	255.57375	1123.6276	-381.23666	304.73874	1116.5975	-369.56723	264.55341	1184.8955	-381.65024	248.90785	796.35425	-331.57767	225.16606	793.73615	-891.83673	220.70787	788.31342	-829.12073	210.50589	714.02588	-828.94403	272.22922	1194.2955	-843.43433	267.72604	1133.1373	-854.37524	321.5087	1190.6947	-845.82965
1471	7.345	141.34099	1597.5939	-630.87061	155.3651	1584.2089	-568.97064	186.21698	1565.7719	-698.25446	350.54333	688.5105	-1728.8722	147.17526	749.01746	494.69186	448.96295	965.65039	-637.99231	443.32336	966.98834	-564.40558	440.0307	978.0694	-601.72723	338.62564	1397.7999	-604.63593	205.0504	1308.9956	-616.96216	410.63406	1133.121	-602.33026	229.71928	1318.7167	-778.82617	229.26071	1328.7096	-441.41647	333.92657	613.50403	-414.69116	342.27258	548.99176	-427.37473	294.21066	559.85968	-416.03619	313.37375	240.7236	-411.18558	363.74637	239.19595	-415.14999	335.37253	180.08971	-417.94592	327.62195	73.785744	-500.96744	350.30466	72.854172	-428.40781	387.63785	36.337406	-473.026	191.46951	44.039001	-449.90997	222.69341	27.325922	-375.17386	194.78894	41.296761	-415.45462	357.52798	613.58667	-792.85181	316.13226	562.54053	-794.37219	364.33926	549.99072	-781.59613	324.40826	282.10129	-801.56824	344.03781	219.93636	-792.33997	374.1651	278.30847	-793.23645	349.3161	73.784851	-775.46405	309.33569	81.397041	-708.68182	384.8555	31.310913	-729.93091	212.23526	30.029345	-817.70819	184.51364	41.17701	-756.37415	192.01775	37.903408	-786.26849	255.17592	1122.6997	-381.10907	303.74231	1116.0035	-369.44589	263.30511	1184.118	-381.77817	249.18425	795.62982	-331.55707	225.24274	792.7962	-892.34644	220.72261	787.69312	-828.47015	210.69475	713.13354	-829.03546	270.73438	1193.6273	-843.53693	266.50293	1132.491	-854.50214	320.01358	1190.3188	-846.04303
1472	7.35	137.80923	1596.0588	-630.58191	152.01186	1582.5231	-568.86298	182.78633	1564.397	-698.10638	351.06274	687.7962	-1728.8138	147.94879	748.24567	494.74948	449.9411	965.90588	-638.39606	444.42883	967.23083	-564.80164	441.01392	978.24811	-602.10596	336.25082	1397.4143	-604.64038	203.33485	1307.5844	-616.90234	410.32114	1133.2777	-602.55151	227.681	1317.7443	-778.6936	227.26897	1327.3176	-442.10416	334.40881	613.12292	-414.50986	342.46014	548.56042	-427.22104	294.37714	559.6936	-415.95215	313.16757	240.68394	-410.99072	363.55698	239.22086	-415.03745	335.19159	180.10953	-417.76135	327.6525	73.788071	-500.91739	350.28281	72.841934	-428.35358	387.62982	36.361801	-473.00821	191.46951	44.037853	-449.89264	222.6884	27.30266	-375.16061	194.80365	41.276466	-415.4614	357.73929	613.14172	-793.31281	315.98184	562.30817	-794.80811	364.09891	549.55157	-781.89362	323.82016	282.20389	-801.80347	343.65207	219.94012	-792.52521	373.70575	278.32669	-793.53467	349.24765	73.811584	-775.53271	309.31152	81.409966	-708.7016	384.86877	31.320845	-729.94104	212.22586	30.025763	-817.70618	184.51247	41.155094	-756.35358	192.00879	37.889885	-786.25061	254.31776	1121.8124	-381.20428	302.84515	1115.4113	-369.37314	262.1153	1183.3121	-381.88327	249.49039	794.88928	-331.54984	225.22498	791.97913	-892.38257	220.61954	786.78552	-829.17322	210.90694	712.53009	-828.89783	269.19431	1192.9792	-843.58966	265.21793	1131.8479	-854.63348	318.44669	1189.9642	-846.27069
1473	7.355	134.14528	1594.1023	-630.59045	148.51224	1580.8318	-568.74072	179.22168	1562.7814	-698.02856	351.54935	686.99219	-1728.7467	148.68954	747.38422	494.81622	450.86197	966.26025	-638.82434	445.45871	967.46265	-565.20892	441.9267	978.51807	-602.51294	333.9129	1396.9479	-604.68567	202.28058	1305.1676	-617.65533	410.00607	1133.4169	-602.80988	225.56874	1316.7473	-778.5083	225.60245	1326.0923	-442.13727	334.87103	613.07642	-414.29584	342.65347	548.2851	-427.04257	294.63498	559.69263	-415.78351	313.04486	240.61275	-410.86505	363.45776	239.21625	-414.91589	335.1232	180.07895	-417.66949	327.64902	73.813484	-500.8812	350.28519	72.848274	-428.30399	387.62848	36.355206	-472.9845	191.48399	44.013134	-449.89539	222.69766	27.326897	-375.15399	194.83546	41.235462	-415.47726	358.064	612.59924	-793.80603	315.94345	562.09741	-795.14014	364.47412	548.7702	-782.24603	323.39297	282.1358	-802.05206	343.3822	219.90268	-792.74164	373.32483	278.34689	-793.79565	349.19125	73.845078	-775.5766	309.28915	81.407555	-708.72076	384.84613	31.35429	-729.96295	212.22144	30.013809	-817.67639	184.51843	41.149384	-756.34137	192.01222	37.863995	-786.22467	253.50902	1120.9318	-381.31808	302.01483	1114.7819	-369.31662	261.17505	1182.3773	-382.00461	249.78413	794.19763	-331.56979	225.18756	791.14191	-892.39764	220.72041	786.09314	-828.47748	211.12955	711.51495	-828.95764	267.68567	1192.2765	-843.6521	263.98218	1131.1498	-854.69971	316.91318	1189.5278	-846.48981
